<?xml version="1.0" encoding="UTF-8"?>
<!DOCTYPE svg PUBLIC "-//W3C//DTD SVG 1.1//EN" "http://www.w3.org/Graphics/SVG/1.1/DTD/svg11.dtd">
<!-- Creator: CorelDRAW X7 -->
<svg xmlns="http://www.w3.org/2000/svg" xml:space="preserve" width="28.0052mm" height="16.0038mm" version="1.1" style="shape-rendering:geometricPrecision; text-rendering:geometricPrecision; image-rendering:optimizeQuality; fill-rule:evenodd; clip-rule:evenodd"
viewBox="0 0 2801 1600"
 xmlns:xlink="http://www.w3.org/1999/xlink">
 <defs>
  <style type="text/css">
   <![CDATA[
    .fil3 {fill:#2B2A29}
    .fil0 {fill:#AC2720}
    .fil4 {fill:#2B2A29;fill-rule:nonzero}
    .fil2 {fill:url(#id0)}
    .fil1 {fill:url(#id1)}
   ]]>
  </style>
  <linearGradient id="id0" gradientUnits="userSpaceOnUse" x1="927.08" y1="461.4" x2="1299.7" y2="273.37">
   <stop offset="0" style="stop-opacity:1; stop-color:#2B2A29"/>
   <stop offset="1" style="stop-opacity:1; stop-color:#E8E8E8"/>
  </linearGradient>
  <linearGradient id="id1" gradientUnits="userSpaceOnUse" xlink:href="#id0" x1="1529.78" y1="265.97" x2="1688.77" y2="52.38">
  </linearGradient>
 </defs>
 <g id="Слой_x0020_1">
  <metadata id="CorelCorpID_0Corel-Layer"/>
  <g id="_353824120">
   <g>
    <g>
     <path class="fil0" d="M0 958l0 284 86 0 0 -170c14,16 70,88 85,107 31,40 42,52 51,63 15,1 28,0 75,0l0 -314 -87 0 0 158c-35,-42 -91,-114 -124,-158l-86 0 0 30z"/>
     <path class="fil0" d="M1458 1080l0 -77c7,0 11,0 17,0 42,0 84,-6 85,39 2,37 -46,38 -85,38 -6,0 -12,0 -17,0zm-88 162l88 0 0 -95 31 0c14,5 60,80 69,95l101 0c-20,-36 -48,-74 -71,-107 38,-16 64,-44 60,-108 -5,-88 -81,-100 -185,-99 -32,0 -62,0 -93,0l0 314z"/>
     <path class="fil0" d="M1839 1006c14,0 14,0 31,0 49,0 89,24 89,78 0,56 -35,82 -86,83 -12,0 -21,0 -34,0l0 -161zm-89 236c18,0 36,0 56,0 19,0 35,0 54,0 5,0 12,0 18,0 86,-6 170,-41 171,-158 1,-140 -117,-156 -220,-156 -28,0 -53,0 -79,0l0 314z"/>
     <polygon class="fil0" points="615,949 615,1242 703,1242 703,1123 813,1123 813,1242 900,1242 900,928 812,928 812,1044 703,1044 703,928 615,928 "/>
     <polygon class="fil0" points="1015,1242 1266,1242 1266,1167 1101,1167 1101,1119 1250,1119 1250,1048 1101,1048 1101,1003 1266,1003 1266,928 1015,928 "/>
     <path class="fil0" d="M2439 928l-89 0c0,50 0,98 0,148 0,49 -2,92 -57,92 -52,-1 -57,-42 -57,-92 0,-50 0,-99 0,-148l-89 0c0,17 0,35 0,52 1,142 -13,268 146,267 154,0 147,-119 146,-250 0,-22 0,-45 0,-69z"/>
     <path class="fil0" d="M2708 1164c-57,29 -104,-8 -137,-27 -45,57 0,0 -45,57 20,28 83,49 129,52 160,11 180,-132 99,-177 -44,-25 -92,-22 -113,-36 -15,-11 -16,-27 3,-35 36,-15 75,11 103,26 42,-61 0,0 42,-61 -88,-61 -211,-57 -242,21 -39,95 48,123 114,139 30,7 51,9 47,41z"/>
     <polygon class="fil0" points="412,1242 500,1242 500,1044 412,1044 "/>
     <polygon class="fil0" points="412,1003 499,1003 499,922 412,922 "/>
    </g>
    <g>
     <polygon class="fil1" points="1504,65 1715,180 1715,224 1504,253 "/>
     <polygon class="fil0" points="1358,284 1715,234 1715,617 1358,668 "/>
     <polygon class="fil0" points="1071,50 1428,0 1428,265 1348,277 1349,394 1231,411 1231,222 1071,135 "/>
     <polygon class="fil2" points="1008,115 1218,230 1220,620 1007,506 "/>
    </g>
   </g>
   <g>
    <path class="fil3" d="M389 1508c0,-11 -2,-19 -5,-24 -3,-4 -8,-6 -15,-6 -6,0 -10,2 -13,6 -2,5 -3,13 -3,24l0 17c0,11 1,19 3,23 3,4 7,7 13,7 7,0 12,-3 15,-7 3,-4 5,-12 5,-24l0 -16zm12 57l-11 0 0 -12c-3,5 -7,8 -11,10 -4,2 -8,3 -14,3 -9,0 -16,-3 -20,-10 -4,-6 -6,-18 -6,-34l0 -15c0,-14 2,-25 6,-31 5,-7 11,-10 21,-10 5,0 9,1 13,3 4,2 7,5 10,9l0 -54 12 0 0 141zm79 -58l38 0 0 -7c0,-8 -1,-15 -4,-18 -2,-3 -7,-4 -15,-4 -7,0 -12,1 -15,4 -2,4 -4,10 -4,18l0 7zm0 12l0 9c0,11 1,18 4,21 2,3 7,5 15,5 8,0 13,-1 16,-3 3,-3 4,-7 4,-13l0 -3 12 0 0 3c0,10 -3,17 -8,22 -5,4 -13,6 -24,6 -12,0 -20,-2 -25,-8 -5,-6 -7,-16 -7,-30l0 -23c0,-15 2,-25 7,-30 5,-6 13,-9 25,-9 12,0 20,3 25,9 4,5 7,15 7,30l0 14 -51 0zm172 12l0 13c0,8 -2,13 -7,17 -4,4 -10,5 -19,5l-11 0c-9,0 -15,-1 -18,-5 -4,-3 -6,-9 -6,-17l0 -10 13 0 0 6c0,6 1,10 2,12 2,2 5,3 10,3l9 0c5,0 8,-1 11,-3 2,-2 3,-5 3,-9l0 -10c0,-6 -6,-11 -17,-12 -2,-1 -4,-1 -5,-1 -11,-2 -18,-4 -21,-7 -2,-2 -3,-6 -3,-12l0 -13c0,-7 2,-13 6,-17 4,-3 11,-5 19,-5l9 0c9,0 15,2 18,5 4,3 5,9 5,18l0 4 -12 0 0 -3c0,-5 -1,-8 -3,-10 -1,-2 -5,-2 -9,-2l-7 0c-5,0 -8,0 -10,2 -2,2 -3,5 -3,10l0 9c0,5 6,8 19,10 3,1 6,1 8,2 7,1 11,3 14,6 3,3 5,8 5,14zm63 34l0 -97 13 0 0 97 -13 0zm0 -123l0 -16 13 0 0 16 -13 0zm127 76l0 -10c0,-11 -2,-19 -5,-24 -3,-4 -8,-6 -15,-6 -6,0 -10,2 -13,6 -2,5 -4,13 -4,24l0 11c0,11 2,19 4,23 3,5 7,7 13,7 7,0 12,-2 15,-7 3,-4 5,-12 5,-24zm12 -50l0 100c0,12 -2,20 -7,25 -5,5 -13,7 -24,7 -10,0 -17,-1 -22,-5 -5,-3 -7,-8 -7,-15l0 -5 13 0c0,1 0,1 0,1 0,1 0,1 0,2 0,4 1,7 3,8 3,2 7,3 13,3 7,0 12,-1 15,-4 2,-3 4,-10 4,-20l0 -16c-3,4 -6,7 -10,9 -4,2 -8,3 -13,3 -10,0 -17,-3 -21,-10 -4,-6 -6,-17 -6,-31l0 -10c0,-16 2,-27 6,-34 4,-7 11,-10 20,-10 5,0 10,1 14,3 4,2 7,6 10,10l0 -11 12 0zm116 97l0 -62c0,-10 -1,-16 -3,-20 -3,-4 -7,-6 -12,-6 -8,0 -13,3 -16,8 -3,5 -5,13 -5,25l0 55 -12 0 0 -97 12 0 0 11c2,-4 5,-8 9,-10 4,-2 9,-3 14,-3 9,0 16,3 20,8 4,5 6,14 6,26l0 65 -13 0z"/>
    <path class="fil3" d="M1369 1565l0 -141 13 0 0 54c2,-4 6,-7 10,-9 4,-2 8,-3 13,-3 9,0 16,3 20,10 4,6 6,17 6,31l0 15c0,16 -2,28 -6,34 -4,7 -10,10 -20,10 -5,0 -10,-1 -13,-3 -4,-2 -8,-5 -11,-10l0 12 -12 0zm13 -57l0 16c0,12 1,20 4,24 3,4 8,7 16,7 6,0 10,-3 12,-7 3,-4 4,-12 4,-23l0 -17c0,-11 -1,-19 -4,-24 -2,-4 -6,-6 -12,-6 -8,0 -13,2 -16,6 -3,5 -4,13 -4,24zm141 47c7,0 12,-1 14,-5 3,-3 5,-8 5,-16 0,-7 -2,-12 -4,-14 -2,-3 -7,-4 -14,-4 -7,0 -11,1 -14,4 -2,3 -3,8 -3,17 0,6 1,11 4,14 2,3 6,4 12,4zm18 10l0 -9c-2,4 -5,6 -8,8 -4,2 -9,3 -15,3 -8,0 -14,-2 -18,-7 -4,-4 -6,-10 -6,-18l0 -13c0,-8 2,-14 6,-19 5,-4 11,-6 20,-6 5,0 9,1 13,2 3,1 6,4 8,6l0 -15c0,-8 -1,-13 -3,-16 -2,-2 -7,-4 -13,-4 -6,0 -10,1 -12,3 -2,2 -3,5 -3,10l0 4 -13 0 0 -4c0,-9 2,-15 7,-19 4,-3 11,-5 21,-5 11,0 18,2 22,6 5,4 7,11 7,22l0 71 -13 0zm92 -97l0 61c0,10 1,17 3,20 3,4 7,6 13,6 7,0 12,-2 15,-7 3,-5 5,-14 5,-26l0 -54 12 0 0 97 -12 0 0 -12c-2,5 -5,8 -9,10 -4,2 -9,3 -14,3 -9,0 -16,-2 -20,-7 -4,-6 -6,-14 -6,-26l0 -65 13 0zm173 63l0 13c0,8 -2,13 -6,17 -5,4 -11,5 -20,5l-11 0c-9,0 -15,-1 -18,-5 -4,-3 -5,-9 -5,-17l0 -10 12 0 0 6c0,6 1,10 2,12 2,2 5,3 10,3l9 0c5,0 9,-1 11,-3 2,-2 3,-5 3,-9l0 -10c0,-6 -6,-11 -17,-12 -2,-1 -3,-1 -5,-1 -11,-2 -18,-4 -20,-7 -3,-2 -4,-6 -4,-12l0 -13c0,-7 2,-13 6,-17 4,-3 11,-5 19,-5l9 0c9,0 15,2 19,5 3,3 5,9 5,18l0 4 -13 0 0 -3c0,-5 0,-8 -2,-10 -2,-2 -5,-2 -10,-2l-7 0c-5,0 -8,0 -10,2 -2,2 -3,5 -3,10l0 9c0,5 6,8 19,10 3,1 6,1 8,2 7,1 12,3 15,6 2,3 4,8 4,14zm76 -24l38 0 0 -7c0,-8 -2,-15 -4,-18 -3,-3 -8,-4 -15,-4 -8,0 -13,1 -15,4 -3,4 -4,10 -4,18l0 7zm0 12l0 9c0,11 1,18 3,21 3,3 8,5 15,5 8,0 13,-1 16,-3 3,-3 5,-7 5,-13l0 -3 11 0 0 3c0,10 -2,17 -7,22 -5,4 -13,6 -25,6 -11,0 -20,-2 -24,-8 -5,-6 -8,-16 -8,-30l0 -23c0,-15 3,-25 7,-30 5,-6 14,-9 25,-9 12,0 21,3 25,9 5,5 7,15 7,30l0 14 -50 0zm126 46l-12 0 0 -97 11 0 0 12c3,-5 6,-8 9,-10 4,-3 9,-4 14,-4 7,0 12,2 15,6 4,4 5,11 5,20l0 8 -11 0 0 -5c0,-6 -1,-11 -3,-14 -2,-3 -5,-4 -10,-4 -6,0 -11,2 -14,6 -2,4 -4,11 -4,20l0 62zm120 0l-25 -97 13 0 21 85 21 -85 13 0 -25 97 -18 0zm102 0l0 -97 12 0 0 97 -12 0zm0 -123l0 -16 12 0 0 16 -12 0zm139 87l0 4c0,12 -2,20 -7,25 -5,6 -13,8 -23,8 -12,0 -20,-2 -25,-8 -5,-6 -7,-16 -7,-30l0 -23c0,-15 2,-25 7,-30 5,-6 13,-9 25,-9 10,0 17,2 21,7 5,4 7,11 7,22l0 4 -12 0 0 -1c0,-7 -2,-12 -4,-15 -3,-3 -7,-5 -13,-5 -7,0 -12,2 -14,5 -3,3 -4,11 -4,22l0 23c0,11 1,18 4,21 2,4 7,5 14,5 7,0 12,-1 14,-4 3,-3 4,-9 4,-17l0 -4 13 0zm74 -22l38 0 0 -7c0,-8 -1,-15 -4,-18 -3,-3 -8,-4 -15,-4 -7,0 -12,1 -15,4 -3,4 -4,10 -4,18l0 7zm0 12l0 9c0,11 1,18 4,21 2,3 7,5 15,5 7,0 13,-1 16,-3 2,-3 4,-7 4,-13l0 -3 11 0 0 3c0,10 -2,17 -7,22 -5,4 -13,6 -24,6 -12,0 -20,-2 -25,-8 -5,-6 -7,-16 -7,-30l0 -23c0,-15 2,-25 7,-30 5,-6 13,-9 25,-9 12,0 20,3 25,9 4,5 7,15 7,30l0 14 -51 0z"/>
    <path class="fil4" d="M1213 1496c0,7 1,16 0,23 -1,9 -2,17 -6,24l0 1 17 21 -14 0 -9 -12 -2 2 0 0c-7,8 -16,13 -26,14 -10,1 -20,-1 -29,-8 -1,-1 -2,-1 -3,-2l0 0c-1,-1 -1,-2 -2,-3 -3,-4 -5,-9 -5,-14 -1,-5 -1,-10 0,-14 0,-8 3,-14 6,-18 2,-4 6,-7 8,-9l1 0 5 -5 -6 -8c-1,-2 -1,-2 -2,-2 -1,-3 -3,-5 -5,-8 -2,-4 -3,-9 -3,-13l0 0c0,-5 2,-10 4,-14 3,-4 6,-7 11,-9 4,-2 8,-3 13,-3 8,0 14,2 19,6l0 0c4,3 7,8 8,13 1,5 0,10 -2,16 -2,8 -8,16 -17,22l-4 2 29 36c2,-5 2,-10 3,-15 1,-8 0,-16 0,-23l11 0zm-22 52c1,-1 2,-2 3,-3l-33 -40 -6 4c-2,2 -4,4 -6,7 -2,3 -4,7 -4,13 -1,4 -1,8 0,12 0,3 1,6 2,8 1,0 1,1 2,1l0 0c0,1 1,2 2,2 6,5 13,7 20,6 8,-1 15,-5 20,-10l0 0zm-28 -58l5 -3 0 0c6,-5 11,-11 13,-17 1,-4 1,-7 1,-10 -1,-3 -2,-5 -4,-7l0 0c-3,-2 -7,-3 -12,-3 -3,0 -6,1 -8,2 -3,1 -5,3 -6,5 -2,2 -3,5 -3,8 0,3 1,5 2,8 1,2 3,4 4,6l2 2 6 9z"/>
   </g>
  </g>
 </g>
</svg>
